<?xml version="1.0" standalone="no"?>
<!DOCTYPE svg PUBLIC "-//W3C//DTD SVG 20010904//EN"
 "http://www.w3.org/TR/2001/REC-SVG-20010904/DTD/svg10.dtd">
<svg version="1.0" xmlns="http://www.w3.org/2000/svg"
 width="94.000000pt" height="87.000000pt" viewBox="0 0 94.000000 87.000000"
 preserveAspectRatio="xMidYMid meet">

<g transform="translate(0.000000,87.000000) scale(0.100000,-0.100000)"
fill="#000000" stroke="none">
<path d="M642 639 c-38 -11 -122 -88 -122 -112 0 -28 37 -57 73 -57 72 1 167
72 167 125 0 27 -34 55 -65 54 -11 0 -35 -5 -53 -10z"/>
<path d="M296 619 c-26 -20 -28 -21 -47 -3 -19 17 -21 17 -51 -14 -30 -30 -31
-32 -15 -50 16 -18 16 -20 -8 -42 -18 -17 -22 -27 -14 -36 21 -26 50 -27 75
-3 22 20 25 21 41 6 17 -14 21 -13 54 18 34 30 35 34 20 49 -14 15 -13 18 14
40 l29 23 -31 17 c-39 20 -35 20 -67 -5z"/>
<path d="M734 389 c-82 -85 -208 -124 -369 -116 -55 3 -124 11 -154 18 -53 13
-54 13 -77 -15 -14 -15 -22 -32 -19 -36 23 -37 306 -64 427 -41 95 19 196 71
253 132 46 50 48 52 29 66 -45 34 -49 34 -90 -8z"/>
</g>
</svg>
